<?xml version="1.0" standalone="no"?>
<!DOCTYPE svg PUBLIC "-//W3C//DTD SVG 20010904//EN"
 "http://www.w3.org/TR/2001/REC-SVG-20010904/DTD/svg10.dtd">
<svg version="1.0" xmlns="http://www.w3.org/2000/svg"
 width="840.000000pt" height="859.000000pt" viewBox="0 0 840.000000 859.000000"
 preserveAspectRatio="xMidYMid meet">

<g transform="translate(0.000000,859.000000) scale(0.100000,-0.100000)"
fill="#ffffff" stroke="none">
<path d="M2700 8460 c0 -6 -62 -10 -165 -10 -91 0 -165 -4 -165 -9 0 -4 -69
-11 -152 -15 -84 -4 -157 -11 -162 -17 -6 -5 -29 -9 -52 -9 -24 0 -45 -4 -48
-9 -3 -4 -37 -11 -76 -15 -38 -4 -70 -11 -70 -17 0 -5 -16 -9 -35 -9 -19 0
-35 -4 -35 -9 0 -4 -27 -11 -60 -15 -33 -4 -60 -11 -60 -16 0 -6 -11 -10 -25
-10 -14 0 -25 -4 -25 -9 0 -5 -17 -12 -37 -16 -43 -7 -93 -27 -93 -36 0 -4
-18 -9 -40 -13 -22 -3 -40 -10 -40 -14 0 -8 -73 -42 -90 -42 -6 0 -10 -3 -10
-8 0 -8 -73 -42 -90 -42 -6 0 -10 -4 -10 -9 0 -5 -8 -11 -17 -15 -21 -6 -51
-25 -71 -43 -7 -7 -19 -13 -26 -13 -6 0 -18 -9 -26 -20 -8 -11 -20 -20 -27
-20 -7 0 -23 -11 -35 -25 -12 -14 -26 -25 -31 -25 -6 0 -32 -22 -58 -50 -26
-27 -52 -50 -58 -50 -13 0 -161 -148 -161 -161 0 -6 -22 -32 -50 -58 -27 -26
-50 -52 -50 -58 0 -5 -11 -19 -25 -31 -14 -12 -25 -28 -25 -35 0 -7 -9 -19
-20 -27 -11 -8 -20 -20 -20 -26 0 -7 -6 -19 -13 -26 -18 -20 -37 -50 -43 -70
-4 -10 -10 -18 -15 -18 -5 0 -9 -4 -9 -10 0 -17 -34 -90 -42 -90 -5 0 -8 -4
-8 -10 0 -17 -34 -90 -42 -90 -4 0 -11 -18 -14 -40 -4 -22 -9 -40 -13 -40 -9
0 -29 -50 -36 -92 -4 -21 -11 -38 -16 -38 -5 0 -9 -11 -9 -25 0 -14 -4 -25
-10 -25 -5 0 -12 -27 -16 -60 -4 -33 -11 -60 -15 -60 -5 0 -9 -16 -9 -35 0
-19 -4 -35 -9 -35 -6 0 -13 -32 -17 -70 -4 -39 -11 -73 -15 -76 -5 -3 -9 -24
-9 -48 0 -23 -4 -46 -9 -51 -6 -6 -13 -79 -17 -162 -4 -84 -11 -153 -15 -153
-5 0 -9 -74 -9 -165 0 -103 -4 -165 -10 -165 -7 0 -10 -508 -10 -1505 0 -997
3 -1505 10 -1505 6 0 10 -62 10 -165 0 -91 4 -165 9 -165 4 0 11 -69 15 -152
4 -84 11 -157 17 -163 5 -5 9 -28 9 -51 0 -24 4 -45 9 -48 4 -3 11 -37 15 -76
4 -38 11 -70 17 -70 5 0 9 -16 9 -35 0 -19 4 -35 9 -35 4 0 11 -27 15 -60 4
-33 11 -60 16 -60 6 0 10 -11 10 -25 0 -14 4 -25 9 -25 5 0 12 -17 16 -37 7
-43 27 -93 36 -93 4 0 9 -18 13 -40 3 -22 10 -40 14 -40 8 0 42 -73 42 -90 0
-6 3 -10 8 -10 8 0 42 -73 42 -90 0 -6 4 -10 9 -10 5 0 11 -8 15 -17 6 -21 25
-51 44 -71 6 -7 12 -19 12 -26 0 -6 9 -18 20 -26 11 -8 20 -20 20 -27 0 -7 11
-23 25 -35 14 -12 25 -26 25 -31 0 -6 22 -32 50 -58 27 -26 50 -52 50 -58 0
-13 148 -161 161 -161 6 0 32 -23 58 -50 26 -28 52 -50 58 -50 5 0 19 -11 31
-25 12 -14 27 -25 33 -25 7 0 19 -8 28 -19 9 -10 26 -21 38 -25 13 -4 23 -12
23 -17 0 -5 7 -9 15 -9 8 0 15 -4 15 -10 0 -5 11 -12 25 -16 14 -3 25 -10 25
-15 0 -5 4 -9 10 -9 17 0 90 -34 90 -42 0 -5 4 -8 10 -8 17 0 90 -34 90 -42 0
-4 18 -11 40 -14 22 -4 40 -9 40 -13 0 -9 50 -29 93 -36 20 -4 37 -11 37 -16
0 -5 11 -9 25 -9 14 0 25 -4 25 -10 0 -5 27 -12 60 -16 33 -4 60 -11 60 -15 0
-5 16 -9 35 -9 19 0 35 -4 35 -9 0 -6 32 -13 70 -17 39 -4 73 -11 76 -15 3 -5
24 -9 48 -9 23 0 46 -4 51 -9 6 -6 79 -13 163 -17 83 -4 152 -11 152 -15 0 -5
74 -9 165 -9 103 0 165 -4 165 -10 0 -7 508 -10 1505 -10 997 0 1505 3 1505
10 0 6 62 10 165 10 91 0 165 4 165 9 0 4 69 11 153 15 83 4 156 11 162 17 5
5 28 9 51 9 24 0 45 4 48 9 3 4 37 11 76 15 38 4 70 11 70 17 0 5 16 9 35 9
19 0 35 4 35 9 0 4 27 11 60 15 33 4 60 11 60 16 0 6 11 10 25 10 14 0 25 4
25 9 0 5 17 12 38 16 42 7 92 27 92 36 0 4 18 9 40 13 22 3 40 10 40 14 0 8
73 42 90 42 6 0 10 3 10 8 0 8 73 42 90 42 6 0 10 4 10 9 0 5 8 11 18 15 20 6
50 25 70 44 7 6 19 12 26 12 6 0 18 9 26 20 8 11 20 20 27 20 7 0 23 11 35 25
12 14 26 25 31 25 6 0 32 22 58 50 26 27 52 50 58 50 13 0 161 148 161 161 0
6 22 32 50 58 27 26 50 52 50 58 0 5 11 19 25 31 14 12 25 27 25 33 0 7 8 19
19 28 10 9 21 26 25 39 4 12 12 22 17 22 5 0 9 7 9 15 0 8 4 15 10 15 5 0 12
11 16 25 3 14 10 25 15 25 5 0 9 4 9 10 0 17 34 90 42 90 5 0 8 4 8 10 0 17
34 90 42 90 4 0 11 18 14 40 4 22 9 40 13 40 9 0 29 50 36 93 4 20 11 37 16
37 5 0 9 11 9 25 0 14 4 25 10 25 5 0 12 27 16 60 4 33 11 60 15 60 5 0 9 16
9 35 0 19 4 35 9 35 6 0 13 32 17 70 4 39 11 73 15 76 5 3 9 24 9 48 0 23 4
46 9 52 6 5 13 78 17 162 4 83 11 152 15 152 5 0 9 74 9 165 0 103 4 165 10
165 7 0 10 508 10 1505 0 997 -3 1505 -10 1505 -6 0 -10 62 -10 165 0 91 -4
165 -9 165 -4 0 -11 69 -15 153 -4 83 -11 156 -17 161 -5 6 -9 29 -9 52 0 24
-4 45 -9 48 -4 3 -11 37 -15 76 -4 38 -11 70 -17 70 -5 0 -9 16 -9 35 0 19 -4
35 -9 35 -4 0 -11 27 -15 60 -4 33 -11 60 -16 60 -6 0 -10 11 -10 25 0 14 -4
25 -9 25 -5 0 -12 17 -16 38 -7 42 -27 92 -36 92 -4 0 -9 18 -13 40 -3 22 -10
40 -14 40 -8 0 -42 73 -42 90 0 6 -3 10 -8 10 -8 0 -42 73 -42 90 0 6 -4 10
-9 10 -5 0 -11 8 -15 18 -6 20 -25 50 -43 70 -7 7 -13 19 -13 26 0 6 -9 18
-20 26 -11 8 -20 20 -20 27 0 7 -11 23 -25 35 -14 12 -25 26 -25 31 0 6 -22
32 -50 58 -27 26 -50 52 -50 58 0 13 -148 161 -161 161 -6 0 -32 23 -58 50
-26 28 -52 50 -58 50 -5 0 -19 11 -31 25 -12 14 -28 25 -35 25 -7 0 -19 9 -27
20 -8 11 -20 20 -26 20 -7 0 -19 6 -26 13 -20 18 -50 37 -70 43 -10 4 -18 10
-18 15 0 5 -4 9 -10 9 -17 0 -90 34 -90 42 0 5 -4 8 -10 8 -17 0 -90 34 -90
42 0 4 -18 11 -40 14 -22 4 -40 9 -40 13 0 9 -50 29 -92 36 -21 4 -38 11 -38
16 0 5 -11 9 -25 9 -14 0 -25 4 -25 10 0 5 -27 12 -60 16 -33 4 -60 11 -60 15
0 5 -16 9 -35 9 -19 0 -35 4 -35 9 0 6 -32 13 -70 17 -39 4 -73 11 -76 15 -3
5 -24 9 -48 9 -23 0 -46 4 -51 9 -6 6 -79 13 -162 17 -84 4 -153 11 -153 15 0
5 -74 9 -165 9 -103 0 -165 4 -165 10 0 7 -508 10 -1505 10 -997 0 -1505 -3
-1505 -10z m3212 -768 c8 -8 44 -12 105 -12 51 0 93 -4 93 -8 0 -5 51 -12 112
-16 62 -4 117 -11 122 -16 6 -6 23 -10 38 -10 15 0 28 -4 28 -9 0 -5 29 -12
65 -16 36 -3 67 -11 70 -16 4 -5 15 -9 26 -9 10 0 19 -4 19 -9 0 -5 16 -12 36
-16 35 -6 73 -23 84 -36 3 -3 22 -9 43 -13 20 -4 37 -11 37 -16 0 -6 9 -10 20
-10 11 0 20 -4 20 -9 0 -5 8 -12 18 -15 32 -13 62 -31 62 -38 0 -5 7 -8 15 -8
8 0 25 -11 39 -25 14 -14 29 -25 33 -25 4 0 25 -18 47 -40 21 -22 42 -40 47
-40 11 0 99 -88 99 -99 0 -5 18 -26 40 -47 22 -22 40 -43 40 -47 0 -4 11 -19
25 -33 14 -14 25 -31 25 -39 0 -8 4 -15 9 -15 5 0 12 -8 15 -17 13 -33 31 -63
38 -63 5 0 8 -9 8 -20 0 -11 4 -20 10 -20 5 0 12 -17 16 -37 4 -21 10 -40 13
-43 13 -11 30 -49 36 -84 4 -20 11 -36 16 -36 5 0 9 -9 9 -19 0 -11 4 -22 9
-26 5 -3 13 -34 16 -70 4 -36 11 -65 16 -65 5 0 9 -13 9 -28 0 -15 4 -32 10
-38 5 -5 12 -60 16 -122 4 -61 11 -112 16 -112 4 0 8 -42 8 -93 0 -61 4 -97
13 -105 9 -10 12 -365 12 -1707 0 -1342 -3 -1697 -12 -1706 -9 -9 -13 -45 -13
-106 0 -51 -4 -93 -8 -93 -5 0 -12 -51 -16 -112 -4 -62 -11 -117 -16 -122 -6
-6 -10 -23 -10 -38 0 -15 -4 -28 -9 -28 -5 0 -12 -29 -16 -65 -3 -36 -11 -67
-16 -70 -5 -4 -9 -15 -9 -26 0 -10 -4 -19 -9 -19 -5 0 -12 -16 -16 -36 -6 -35
-23 -73 -36 -84 -3 -3 -9 -22 -13 -42 -4 -21 -11 -38 -16 -38 -6 0 -10 -9 -10
-20 0 -11 -4 -20 -9 -20 -5 0 -12 -8 -15 -17 -13 -33 -31 -63 -38 -63 -5 0 -8
-7 -8 -15 0 -8 -11 -25 -25 -39 -14 -14 -25 -29 -25 -33 0 -4 -18 -25 -40 -47
-22 -21 -40 -43 -40 -47 0 -12 -69 -79 -81 -79 -5 0 -30 -22 -56 -50 -26 -27
-51 -50 -56 -50 -4 0 -19 -11 -33 -25 -14 -14 -31 -25 -39 -25 -8 0 -15 -4
-15 -9 0 -5 -8 -12 -17 -15 -33 -13 -63 -31 -63 -38 0 -5 -9 -8 -20 -8 -11 0
-20 -4 -20 -10 0 -5 -17 -12 -37 -16 -21 -4 -40 -10 -43 -13 -11 -13 -49 -30
-84 -36 -20 -4 -36 -11 -36 -16 0 -5 -9 -9 -19 -9 -11 0 -22 -4 -26 -9 -3 -5
-34 -13 -70 -16 -36 -4 -65 -11 -65 -16 0 -5 -13 -9 -28 -9 -15 0 -32 -4 -38
-10 -5 -5 -60 -12 -122 -16 -61 -4 -112 -11 -112 -16 0 -4 -42 -8 -93 -8 -61
0 -97 -4 -106 -12 -18 -19 -3394 -19 -3412 -1 -9 9 -45 13 -106 13 -51 0 -93
4 -93 8 0 5 -51 12 -112 16 -62 4 -117 11 -122 16 -6 6 -23 10 -38 10 -15 0
-28 4 -28 9 0 5 -29 12 -65 16 -36 3 -67 11 -70 16 -4 5 -15 9 -26 9 -10 0
-19 4 -19 9 0 5 -16 12 -36 16 -35 6 -73 23 -84 36 -3 3 -22 9 -42 13 -21 4
-38 11 -38 16 0 6 -9 10 -20 10 -11 0 -20 4 -20 9 0 5 -8 12 -17 15 -33 13
-63 31 -63 38 0 5 -7 8 -15 8 -8 0 -25 11 -39 25 -14 14 -29 25 -33 25 -4 0
-25 18 -47 40 -21 22 -43 40 -48 40 -12 0 -98 86 -98 98 0 5 -18 27 -40 48
-22 22 -40 43 -40 47 0 4 -11 19 -25 33 -14 14 -25 31 -25 39 0 8 -4 15 -9 15
-5 0 -12 8 -15 18 -13 32 -31 62 -38 62 -5 0 -8 9 -8 20 0 11 -4 20 -10 20 -5
0 -12 17 -16 38 -4 20 -10 39 -13 42 -13 11 -30 49 -36 84 -4 20 -11 36 -16
36 -5 0 -9 9 -9 19 0 11 -4 22 -9 26 -5 3 -13 34 -16 70 -4 36 -11 65 -16 65
-5 0 -9 13 -9 28 0 15 -4 32 -10 38 -5 5 -12 60 -16 122 -4 61 -11 112 -16
112 -4 0 -8 42 -8 93 0 61 -4 97 -13 106 -18 18 -18 3394 1 3413 8 8 12 44 12
105 0 51 4 93 8 93 5 0 12 51 16 112 4 62 11 117 16 122 6 6 10 23 10 38 0 15
4 28 9 28 5 0 12 29 16 65 3 36 11 67 16 70 5 4 9 15 9 26 0 10 4 19 9 19 5 0
12 16 16 36 6 35 23 73 36 84 3 3 9 22 13 43 4 20 11 37 16 37 6 0 10 9 10 20
0 11 4 20 9 20 5 0 12 8 15 18 13 32 31 62 38 62 5 0 8 7 8 15 0 8 11 25 25
39 14 14 25 29 25 33 0 4 18 25 40 47 22 21 40 43 40 48 0 12 86 98 98 98 5 0
27 18 48 40 22 22 43 40 47 40 4 0 19 11 33 25 14 14 31 25 39 25 8 0 15 4 15
9 0 5 8 12 18 15 32 13 62 31 62 38 0 5 9 8 20 8 11 0 20 4 20 10 0 5 17 12
38 16 20 4 39 10 42 13 11 13 49 30 84 36 20 4 36 11 36 16 0 5 9 9 19 9 11 0
22 4 26 9 3 5 34 13 70 16 36 4 65 11 65 16 0 5 13 9 28 9 15 0 32 4 38 10 5
5 60 12 122 16 61 4 112 11 112 16 0 4 42 8 93 8 51 0 97 4 103 10 14 14 287
17 1921 16 1169 -1 1485 -4 1495 -14z"/>
<path d="M6288 7013 c-16 -2 -28 -9 -28 -14 0 -5 -11 -9 -25 -9 -14 0 -25 -4
-25 -9 0 -5 -11 -12 -25 -15 -14 -4 -25 -11 -25 -16 0 -6 -6 -10 -12 -10 -16
0 -138 -123 -138 -139 0 -6 -6 -14 -14 -17 -8 -3 -17 -23 -21 -45 -4 -21 -11
-41 -16 -45 -5 -3 -9 -16 -9 -30 0 -13 -4 -24 -10 -24 -6 0 -10 -47 -10 -120
0 -73 4 -120 10 -120 6 0 10 -11 10 -25 0 -14 4 -25 9 -25 5 0 11 -17 14 -38
4 -21 15 -44 27 -52 11 -8 20 -20 20 -27 0 -15 108 -123 123 -123 7 0 19 -9
27 -20 8 -12 31 -23 52 -27 21 -3 38 -9 38 -14 0 -5 11 -9 25 -9 14 0 25 -4
25 -10 0 -6 47 -10 120 -10 73 0 120 4 120 10 0 6 11 10 24 10 14 0 27 4 30 9
4 5 24 12 45 16 22 4 42 13 45 21 3 8 11 14 17 14 16 0 139 122 139 138 0 6 3
12 8 12 11 0 42 59 42 80 0 10 6 20 13 23 9 3 12 45 12 167 0 122 -3 164 -12
168 -7 2 -13 12 -13 23 0 10 -4 19 -9 19 -5 0 -12 14 -16 30 -4 17 -11 30 -16
30 -5 0 -9 7 -9 16 0 20 -114 134 -134 134 -9 0 -16 4 -16 9 0 5 -13 12 -30
16 -16 4 -30 11 -30 16 0 5 -9 9 -19 9 -11 0 -21 6 -23 12 -5 13 -251 22 -310
11z"/>
<path d="M3968 6433 c-43 -2 -78 -8 -78 -13 0 -6 -22 -10 -50 -10 -27 0 -50
-4 -50 -9 0 -4 -30 -11 -67 -15 -37 -4 -72 -11 -79 -17 -7 -5 -35 -12 -63 -16
-28 -3 -51 -10 -51 -14 0 -5 -11 -9 -25 -9 -14 0 -25 -4 -25 -10 0 -5 -18 -13
-40 -16 -22 -4 -40 -10 -40 -15 0 -5 -9 -9 -20 -9 -11 0 -20 -4 -20 -9 0 -5
-18 -11 -40 -15 -22 -3 -40 -11 -40 -16 0 -6 -7 -10 -15 -10 -8 0 -15 -4 -15
-10 0 -5 -16 -12 -35 -16 -19 -3 -35 -10 -35 -15 0 -5 -7 -9 -15 -9 -8 0 -15
-4 -15 -10 0 -5 -11 -12 -25 -16 -14 -3 -25 -10 -25 -14 0 -4 -8 -10 -17 -14
-25 -8 -55 -28 -74 -48 -9 -10 -21 -18 -27 -18 -6 0 -22 -11 -36 -25 -14 -14
-30 -25 -36 -25 -5 0 -20 -11 -32 -25 -12 -14 -26 -25 -31 -25 -12 0 -307
-295 -307 -307 0 -5 -11 -19 -25 -31 -14 -12 -25 -27 -25 -32 0 -6 -11 -22
-25 -36 -14 -14 -25 -30 -25 -36 0 -6 -8 -18 -17 -27 -21 -19 -41 -49 -49 -73
-4 -10 -10 -18 -14 -18 -4 0 -11 -11 -14 -25 -4 -14 -11 -25 -16 -25 -6 0 -10
-7 -10 -15 0 -8 -4 -15 -9 -15 -5 0 -12 -16 -15 -35 -4 -19 -11 -35 -16 -35
-6 0 -10 -7 -10 -15 0 -8 -4 -15 -10 -15 -5 0 -13 -18 -16 -40 -4 -22 -10 -40
-15 -40 -5 0 -9 -9 -9 -20 0 -11 -4 -20 -9 -20 -5 0 -11 -18 -15 -40 -3 -22
-11 -40 -16 -40 -6 0 -10 -11 -10 -25 0 -14 -4 -25 -9 -25 -4 0 -11 -23 -14
-52 -4 -28 -11 -56 -17 -62 -5 -5 -10 -22 -10 -37 0 -15 -3 -30 -8 -33 -4 -2
-7 -20 -6 -40 1 -20 -2 -36 -7 -36 -5 0 -9 -22 -9 -49 0 -31 -5 -51 -12 -53
-19 -7 -19 -619 0 -626 7 -2 12 -22 12 -53 0 -27 4 -49 9 -49 5 0 8 -16 6 -35
-1 -20 2 -38 7 -41 4 -3 8 -18 8 -33 0 -15 5 -32 10 -37 6 -6 13 -34 17 -62 3
-29 10 -52 14 -52 5 0 9 -11 9 -25 0 -14 4 -25 10 -25 5 0 13 -18 16 -40 4
-22 10 -40 15 -40 5 0 9 -9 9 -20 0 -11 4 -20 9 -20 5 0 11 -18 15 -40 3 -22
11 -40 16 -40 6 0 10 -7 10 -15 0 -8 4 -15 10 -15 5 0 12 -16 16 -35 3 -19 10
-35 15 -35 5 0 9 -7 9 -15 0 -8 4 -15 10 -15 5 0 12 -11 16 -25 3 -14 10 -25
14 -25 4 0 10 -8 14 -17 8 -25 28 -55 49 -74 9 -9 17 -21 17 -27 0 -6 11 -22
25 -36 14 -14 25 -30 25 -36 0 -5 11 -20 25 -32 14 -12 25 -26 25 -31 0 -12
295 -307 307 -307 5 0 19 -11 31 -25 12 -14 27 -25 32 -25 6 0 22 -11 36 -25
14 -14 30 -25 36 -25 6 0 18 -8 27 -18 19 -20 49 -40 74 -48 9 -4 17 -10 17
-14 0 -4 11 -11 25 -14 14 -4 25 -11 25 -16 0 -6 7 -10 15 -10 8 0 15 -4 15
-9 0 -5 16 -12 35 -15 19 -4 35 -11 35 -16 0 -6 7 -10 15 -10 8 0 15 -4 15
-10 0 -5 18 -13 40 -16 22 -4 40 -10 40 -15 0 -5 9 -9 20 -9 11 0 20 -4 20 -9
0 -5 18 -11 40 -15 22 -3 40 -11 40 -16 0 -6 11 -10 25 -10 14 0 25 -4 25 -9
0 -4 23 -11 52 -14 28 -4 56 -11 62 -17 5 -5 23 -10 38 -10 15 0 28 -5 28 -10
0 -6 12 -10 28 -10 57 1 147 -13 154 -24 11 -17 620 -15 626 2 2 7 22 12 53
12 27 0 49 4 49 9 0 4 30 11 67 15 37 4 72 11 79 17 7 5 35 12 63 16 28 3 51
10 51 14 0 5 11 9 25 9 14 0 25 4 25 10 0 5 18 13 40 16 22 4 40 10 40 15 0 5
9 9 20 9 11 0 20 4 20 9 0 5 18 11 40 15 22 3 40 11 40 16 0 6 7 10 15 10 8 0
15 4 15 10 0 5 16 12 35 16 19 3 35 10 35 15 0 5 7 9 15 9 8 0 15 4 15 10 0 5
11 12 25 16 14 3 25 10 25 14 0 4 8 10 18 14 24 8 54 28 73 49 9 9 21 17 27
17 6 0 22 11 36 25 14 14 30 25 36 25 5 0 20 11 32 25 12 14 26 25 31 25 12 0
307 295 307 307 0 5 11 19 25 31 14 12 25 27 25 32 0 6 11 22 25 36 14 14 25
30 25 36 0 6 8 18 18 27 20 19 40 49 48 74 4 9 10 17 14 17 4 0 11 11 14 25 4
14 11 25 16 25 6 0 10 7 10 15 0 8 4 15 9 15 5 0 12 16 15 35 4 19 11 35 16
35 6 0 10 7 10 15 0 8 4 15 10 15 5 0 13 18 16 40 4 22 10 40 15 40 5 0 9 9 9
20 0 11 4 20 9 20 5 0 11 18 15 40 3 22 11 40 16 40 6 0 10 11 10 25 0 14 4
25 9 25 4 0 11 23 14 51 4 28 11 56 16 63 6 7 13 42 17 79 4 37 11 67 15 67 5
0 9 22 9 49 0 31 5 51 13 54 9 3 12 74 12 312 0 238 -3 309 -12 313 -8 2 -13
22 -13 53 0 27 -4 49 -9 49 -4 0 -11 30 -15 67 -4 37 -11 72 -17 79 -5 7 -12
35 -16 63 -3 28 -10 51 -14 51 -5 0 -9 11 -9 25 0 14 -4 25 -10 25 -5 0 -13
18 -16 40 -4 22 -10 40 -15 40 -5 0 -9 9 -9 20 0 11 -4 20 -9 20 -5 0 -11 18
-15 40 -3 22 -11 40 -16 40 -6 0 -10 7 -10 15 0 8 -4 15 -10 15 -5 0 -12 16
-16 35 -3 19 -10 35 -15 35 -5 0 -9 7 -9 15 0 8 -4 15 -10 15 -5 0 -12 11 -16
25 -3 14 -10 25 -14 25 -4 0 -10 8 -14 18 -8 24 -28 54 -48 73 -10 9 -18 21
-18 27 0 6 -11 22 -25 36 -14 14 -25 30 -25 36 0 5 -11 20 -25 32 -14 12 -25
26 -25 31 0 12 -295 307 -307 307 -5 0 -19 11 -31 25 -12 14 -27 25 -32 25 -6
0 -22 11 -36 25 -14 14 -30 25 -36 25 -6 0 -18 8 -27 18 -19 20 -49 40 -73 48
-10 4 -18 10 -18 14 0 4 -11 11 -25 14 -14 4 -25 11 -25 16 0 6 -7 10 -15 10
-8 0 -15 4 -15 9 0 5 -16 12 -35 15 -19 4 -35 11 -35 16 0 6 -7 10 -15 10 -8
0 -15 4 -15 10 0 5 -18 13 -40 16 -22 4 -40 10 -40 15 0 5 -9 9 -20 9 -11 0
-20 4 -20 9 0 5 -18 11 -40 15 -22 3 -40 11 -40 16 0 6 -11 10 -25 10 -14 0
-25 4 -25 9 0 4 -23 11 -52 14 -28 4 -56 11 -62 17 -5 5 -22 10 -37 10 -15 0
-30 4 -33 8 -3 5 -21 8 -41 7 -19 -2 -35 1 -35 6 0 5 -22 9 -49 9 -27 0 -51 5
-53 10 -3 11 -409 21 -550 13z m540 -781 c2 -7 17 -12 33 -12 16 0 29 -4 29
-9 0 -5 23 -12 50 -16 28 -4 50 -11 50 -16 0 -5 11 -9 25 -9 14 0 25 -4 25 -9
0 -5 16 -12 35 -15 19 -4 35 -11 35 -16 0 -6 5 -10 11 -10 13 0 82 -31 89 -40
3 -4 12 -9 20 -13 21 -9 51 -30 68 -44 7 -7 19 -13 25 -13 7 0 21 -11 31 -25
10 -14 23 -25 29 -25 14 0 226 -212 227 -226 0 -6 11 -20 25 -30 14 -10 25
-24 25 -31 0 -6 6 -18 13 -25 7 -7 16 -20 20 -28 9 -19 30 -53 38 -60 8 -8 39
-77 39 -89 0 -6 4 -11 10 -11 5 0 12 -16 16 -35 3 -19 10 -35 15 -35 5 0 9
-11 9 -25 0 -14 4 -25 9 -25 5 0 12 -22 16 -50 4 -27 11 -50 16 -50 5 0 9 -13
9 -29 0 -16 6 -31 13 -33 9 -4 12 -73 12 -303 0 -230 -3 -299 -12 -302 -7 -3
-13 -18 -13 -34 0 -16 -4 -29 -9 -29 -5 0 -12 -22 -16 -50 -4 -27 -11 -50 -16
-50 -5 0 -9 -11 -9 -25 0 -14 -4 -25 -9 -25 -5 0 -12 -16 -15 -35 -4 -19 -11
-35 -16 -35 -6 0 -10 -5 -10 -11 0 -13 -31 -82 -40 -89 -4 -3 -9 -12 -13 -20
-9 -21 -30 -51 -44 -68 -7 -7 -13 -19 -13 -25 0 -7 -11 -21 -25 -31 -14 -10
-25 -23 -25 -29 0 -14 -212 -226 -226 -227 -6 0 -20 -11 -30 -25 -10 -14 -24
-25 -31 -25 -6 0 -18 -6 -25 -13 -7 -7 -20 -16 -28 -20 -19 -9 -53 -30 -60
-38 -8 -8 -77 -39 -89 -39 -6 0 -11 -4 -11 -10 0 -5 -16 -12 -35 -16 -19 -3
-35 -10 -35 -15 0 -5 -11 -9 -25 -9 -14 0 -25 -4 -25 -9 0 -5 -22 -12 -50 -16
-27 -4 -50 -11 -50 -16 0 -5 -13 -9 -29 -9 -16 0 -31 -6 -33 -12 -4 -10 -73
-13 -303 -13 -230 0 -299 3 -302 13 -3 6 -18 12 -34 12 -16 0 -29 4 -29 9 0 5
-22 12 -50 16 -27 4 -50 11 -50 16 0 5 -11 9 -25 9 -14 0 -25 4 -25 9 0 5 -16
12 -35 15 -19 4 -35 11 -35 16 0 6 -5 10 -11 10 -13 0 -82 31 -89 40 -3 4 -12
9 -20 13 -21 9 -51 30 -68 45 -7 6 -19 12 -25 12 -7 0 -21 11 -31 25 -10 14
-24 25 -30 25 -14 1 -226 213 -226 227 0 6 -11 19 -25 29 -14 10 -25 24 -25
31 0 6 -6 18 -13 25 -7 7 -16 20 -20 28 -9 19 -30 53 -38 60 -8 8 -39 77 -39
89 0 6 -4 11 -10 11 -5 0 -12 16 -16 35 -3 19 -10 35 -15 35 -5 0 -9 11 -9 25
0 14 -4 25 -9 25 -5 0 -12 23 -16 50 -4 28 -11 50 -16 50 -5 0 -9 13 -9 29 0
16 -6 31 -12 34 -19 6 -19 598 0 605 6 2 12 17 12 33 0 16 4 29 9 29 5 0 12
23 16 50 4 28 11 50 16 50 5 0 9 11 9 25 0 14 4 25 9 25 5 0 12 16 15 35 4 19
11 35 16 35 6 0 10 5 10 11 0 13 31 82 40 89 4 3 9 12 13 20 9 21 30 51 45 68
6 7 12 19 12 25 0 7 11 21 25 31 14 10 25 23 25 29 0 14 212 226 226 227 6 0
20 11 30 25 10 14 24 25 31 25 6 0 18 6 25 13 17 14 47 35 68 44 8 4 17 9 20
13 7 9 76 40 89 40 6 0 11 4 11 10 0 5 16 12 35 16 19 3 35 10 35 15 0 5 11 9
25 9 14 0 25 4 25 9 0 5 23 12 50 16 28 4 50 11 50 16 0 5 14 9 30 9 17 0 30
4 30 9 0 15 82 19 354 17 182 -2 251 -6 254 -14z"/>
</g>
</svg>
